<?xml version="1.0" encoding="utf-8"?>
<!-- Generator: Adobe Illustrator 15.0.0, SVG Export Plug-In . SVG Version: 6.00 Build 0)  -->
<!DOCTYPE svg PUBLIC "-//W3C//DTD SVG 1.1//EN" "http://www.w3.org/Graphics/SVG/1.1/DTD/svg11.dtd">
<svg version="1.1" id="Layer_1" xmlns="http://www.w3.org/2000/svg" xmlns:xlink="http://www.w3.org/1999/xlink" x="0px" y="0px"
	 width="1271.069px" height="483.082px" viewBox="0 0 1271.069 483.082" enable-background="new 0 0 1271.069 483.082"
	 xml:space="preserve">
<rect x="2.871" stroke="#000000" stroke-miterlimit="10" width="1702" height="630"/>
<polygon fill="#87754E" points="1020.689,632.729 1549.453,169.242 1549.453,139.447 1020.689,602.934 "/>
<polygon fill="#87754E" points="1563.173,652.729 996.285,152.665 996.285,119.591 1563.173,619.65 "/>
<polygon fill="#87754E" points="1585.734,-245.113 979.285,280.488 979.285,318.291 1585.734,-207.31 "/>
<polygon fill="#87754E" points="1347.189,-176.97 740.74,334.346 740.74,372.15 1347.189,-139.166 "/>
<polygon fill="#87754E" points="913.744,188.292 307.295,699.607 307.295,737.412 913.744,226.096 "/>
<polygon fill="#87754E" points="1366.148,328.857 1894.912,-134.628 1894.912,-164.423 1366.148,299.062 "/>
<polygon fill="#87754E" points="986.473,274.376 380.024,799.977 380.024,837.779 986.473,312.179 "/>
</svg>
